<?xml version="1.0" encoding="UTF-8" standalone="no" ?>
<!DOCTYPE svg PUBLIC "-//W3C//DTD SVG 1.1//EN" "http://www.w3.org/Graphics/SVG/1.1/DTD/svg11.dtd">
<svg xmlns="http://www.w3.org/2000/svg" xmlns:xlink="http://www.w3.org/1999/xlink" version="1.1" width="623.57" height="531.5" xml:space="preserve">
<desc>Created with Fabric.js 1.6.0-rc.1</desc>
<defs></defs>
<g style="stroke: none; stroke-width: 1; stroke-dasharray: none; stroke-linecap: butt; stroke-linejoin: miter; stroke-miterlimit: 10; fill: none; fill-rule: nonzero; opacity: 1;" transform="translate(10 10) scale(10.23 10.23)" >
  <path d="M 24.093 45 c 0.208 0.58 0.758 1 1.407 1 h 8 c 0.649 0 1.2 -0.42 1.407 -1 H 55 V 12.067 C 55 10.373 53.627 9 51.933 9 H 6.067 C 4.373 9 3 10.373 3 12.067 V 45 H 24.093 z" style="stroke: none; stroke-width: 1; stroke-dasharray: none; stroke-linecap: butt; stroke-linejoin: miter; stroke-miterlimit: 10; fill: #000000; fill-rule: nonzero; opacity: 1;" transform=" matrix(1 0 0 1 0 0) " stroke-linecap="round" />
  <rect x="6" y="12" rx="0" ry="0" width="46" height="30" style="stroke: none; stroke-width: 1; stroke-dasharray: none; stroke-linecap: butt; stroke-linejoin: miter; stroke-miterlimit: 10; fill: #fffff4; fill-rule: nonzero; opacity: 1;" transform=" matrix(1 0 0 1 0 0) "/>
  <path d="M 11 22 c 0.256 0 0.512 -0.098 0.707 -0.293 l 4 -4 c 0.391 -0.391 0.391 -1.023 0 -1.414 s -1.023 -0.391 -1.414 0 l -4 4 c -0.391 0.391 -0.391 1.023 0 1.414 C 10.488 21.902 10.744 22 11 22 z" style="stroke: none; stroke-width: 1; stroke-dasharray: none; stroke-linecap: butt; stroke-linejoin: miter; stroke-miterlimit: 10; fill: #fffff4; fill-rule: nonzero; opacity: 1;" transform=" matrix(1 0 0 1 0 0) " stroke-linecap="round" />
  <path d="M 11 27 c 0.256 0 0.512 -0.098 0.707 -0.293 l 2 -2 c 0.391 -0.391 0.391 -1.023 0 -1.414 s -1.023 -0.391 -1.414 0 l -2 2 c -0.391 0.391 -0.391 1.023 0 1.414 C 10.488 26.902 10.744 27 11 27 z" style="stroke: none; stroke-width: 1; stroke-dasharray: none; stroke-linecap: butt; stroke-linejoin: miter; stroke-miterlimit: 10; fill: #fffff4; fill-rule: nonzero; opacity: 1;" transform=" matrix(1 0 0 1 0 0) " stroke-linecap="round" />
  <path d="M 14.29 21.29 C 14.109 21.48 14 21.74 14 22 c 0 0.26 0.109 0.52 0.29 0.71 C 14.479 22.89 14.74 23 15 23 s 0.52 -0.11 0.71 -0.29 C 15.89 22.52 16 22.26 16 22 c 0 -0.26 -0.11 -0.52 -0.29 -0.71 C 15.34 20.92 14.649 20.93 14.29 21.29 z" style="stroke: none; stroke-width: 1; stroke-dasharray: none; stroke-linecap: butt; stroke-linejoin: miter; stroke-miterlimit: 10; fill: #fffff4; fill-rule: nonzero; opacity: 1;" transform=" matrix(1 0 0 1 0 0) " stroke-linecap="round" />
  <path d="M 16.293 20.707 C 16.488 20.902 16.744 21 17 21 s 0.512 -0.098 0.707 -0.293 l 3 -3 c 0.391 -0.391 0.391 -1.023 0 -1.414 s -1.023 -0.391 -1.414 0 l -3 3 C 15.902 19.684 15.902 20.316 16.293 20.707 z" style="stroke: none; stroke-width: 1; stroke-dasharray: none; stroke-linecap: butt; stroke-linejoin: miter; stroke-miterlimit: 10; fill: #fffff4; fill-rule: nonzero; opacity: 1;" transform=" matrix(1 0 0 1 0 0) " stroke-linecap="round" />
  <path d="M 19.293 21.293 l -9 9 c -0.391 0.391 -0.391 1.023 0 1.414 C 10.488 31.902 10.744 32 11 32 s 0.512 -0.098 0.707 -0.293 l 9 -9 c 0.391 -0.391 0.391 -1.023 0 -1.414 S 19.684 20.902 19.293 21.293 z" style="stroke: none; stroke-width: 1; stroke-dasharray: none; stroke-linecap: butt; stroke-linejoin: miter; stroke-miterlimit: 10; fill: #fffff4; fill-rule: nonzero; opacity: 1;" transform=" matrix(1 0 0 1 0 0) " stroke-linecap="round" />
  <path d="M 21.29 19.29 C 21.109 19.48 21 19.74 21 20 c 0 0.26 0.109 0.52 0.29 0.71 C 21.479 20.89 21.74 21 22 21 s 0.52 -0.11 0.71 -0.29 C 22.89 20.52 23 20.26 23 20 c 0 -0.27 -0.11 -0.52 -0.29 -0.71 C 22.34 18.92 21.67 18.92 21.29 19.29 z" style="stroke: none; stroke-width: 1; stroke-dasharray: none; stroke-linecap: butt; stroke-linejoin: miter; stroke-miterlimit: 10; fill: #fffff4; fill-rule: nonzero; opacity: 1;" transform=" matrix(1 0 0 1 0 0) " stroke-linecap="round" />
  <path d="M 25.707 16.293 c -0.391 -0.391 -1.023 -0.391 -1.414 0 l -1 1 c -0.391 0.391 -0.391 1.023 0 1.414 C 23.488 18.902 23.744 19 24 19 s 0.512 -0.098 0.707 -0.293 l 1 -1 C 26.098 17.316 26.098 16.684 25.707 16.293 z" style="stroke: none; stroke-width: 1; stroke-dasharray: none; stroke-linecap: butt; stroke-linejoin: miter; stroke-miterlimit: 10; fill: #fffff4; fill-rule: nonzero; opacity: 1;" transform=" matrix(1 0 0 1 0 0) " stroke-linecap="round" />
  <path d="M 34.907 45 c -0.208 0.58 -0.758 1 -1.407 1 h -8 c -0.649 0 -1.2 -0.42 -1.407 -1 H 0.578 C 0.259 45 0 45.259 0 45.578 v 2.844 C 0 48.741 0.259 49 0.578 49 h 56.844 C 57.741 49 58 48.741 58 48.422 v -2.844 C 58 45.259 57.741 45 57.422 45 H 34.907 z" style="stroke: none; stroke-width: 1; stroke-dasharray: none; stroke-linecap: butt; stroke-linejoin: miter; stroke-miterlimit: 10; fill: #b0b1bd; fill-rule: nonzero; opacity: 1;" transform=" matrix(1 0 0 1 0 0) " stroke-linecap="round" />
</g>
  <g transform="translate(286.44 330.03) scale(8.03 7.3)">
   <text font-family="ADAMCG PRO" font-size="40" font-style="italic" font-weight="bold" style="stroke: none; stroke-width: 1; stroke-dasharray: none; stroke-linecap: butt; stroke-linejoin: miter; stroke-miterlimit: 10; fill: #3b83f6; fill-rule: nonzero; opacity: 1;" ><tspan x="-30.44" y="8.98" style="stroke: none; stroke-width: 0; stroke-dasharray: none; stroke-linecap: butt; stroke-linejoin: miter; stroke-miterlimit: 4; fill: #3b83f6; fill-rule: ; opacity: 1;">&lt;</tspan><tspan x="-9.81" y="8.98" style="stroke: none; stroke-width: 0; stroke-dasharray: none; stroke-linecap: butt; stroke-linejoin: miter; stroke-miterlimit: 4; fill: #3b83f6; fill-rule: ; opacity: 1;">/</tspan><tspan x="9.81" y="8.98" style="stroke: none; stroke-width: 0; stroke-dasharray: none; stroke-linecap: butt; stroke-linejoin: miter; stroke-miterlimit: 4; fill: #3b83f6; fill-rule: ; opacity: 1;">&gt;</tspan></text>
 </g>
</svg>