<?xml version="1.0" encoding="UTF-8" standalone="no" ?>
<!DOCTYPE svg PUBLIC "-//W3C//DTD SVG 1.1//EN" "http://www.w3.org/Graphics/SVG/1.1/DTD/svg11.dtd">
<svg xmlns="http://www.w3.org/2000/svg" xmlns:xlink="http://www.w3.org/1999/xlink" version="1.1" width="562.9501" height="568.9100000000001" xml:space="preserve">
<desc>Created with Fabric.js 1.6.0-rc.1</desc>
<defs></defs>
<g style="stroke: none; stroke-width: 1; stroke-dasharray: none; stroke-linecap: butt; stroke-linejoin: miter; stroke-miterlimit: 10; fill: #000000; fill-rule: nonzero; opacity: 1;" transform="translate(10 10) scale(1.07 1.07)" >
  <path d="M 289.391 0 h -66.783 c -9.217 0 -16.696 7.473 -16.696 16.696 v 66.783 h 100.174 V 16.696 C 306.087 7.473 298.608 0 289.391 0 z" style="stroke: none; stroke-width: 1; stroke-dasharray: none; stroke-linecap: butt; stroke-linejoin: miter; stroke-miterlimit: 10; fill: #7d4e25; fill-rule: nonzero; opacity: 1;" transform=" matrix(1 0 0 1 0 0) " stroke-linecap="round" />
  <path d="M 289.391 333.913 h -66.783 c -9.217 0 -16.696 7.473 -16.696 16.696 v 144.696 c 0 9.223 7.479 16.696 16.696 16.696 h 66.783 c 9.217 0 16.696 -7.473 16.696 -16.696 V 350.609 C 306.087 341.386 298.608 333.913 289.391 333.913 z" style="stroke: none; stroke-width: 1; stroke-dasharray: none; stroke-linecap: butt; stroke-linejoin: miter; stroke-miterlimit: 10; fill: #7d4e25; fill-rule: nonzero; opacity: 1;" transform=" matrix(1 0 0 1 0 0) " stroke-linecap="round" />
  <rect x="205.91" y="166.96" rx="0" ry="0" width="100.17" height="100.17" style="stroke: none; stroke-width: 1; stroke-dasharray: none; stroke-linecap: butt; stroke-linejoin: miter; stroke-miterlimit: 10; fill: #7d4e25; fill-rule: nonzero; opacity: 1;" transform=" matrix(1 0 0 1 0 0) "/>
  <path d="M 289.391 333.913 H 256 V 512 h 33.391 c 9.217 0 16.696 -7.473 16.696 -16.696 V 350.609 C 306.087 341.386 298.608 333.913 289.391 333.913 z" style="stroke: none; stroke-width: 1; stroke-dasharray: none; stroke-linecap: butt; stroke-linejoin: miter; stroke-miterlimit: 10; fill: #875334; fill-rule: nonzero; opacity: 1;" transform=" matrix(1 0 0 1 0 0) " stroke-linecap="round" />
  <rect x="256" y="166.96" rx="0" ry="0" width="50.09" height="100.17" style="stroke: none; stroke-width: 1; stroke-dasharray: none; stroke-linecap: butt; stroke-linejoin: miter; stroke-miterlimit: 10; fill: #875334; fill-rule: nonzero; opacity: 1;" transform=" matrix(1 0 0 1 0 0) "/>
  <path d="M 289.391 0 H 256 v 83.478 h 50.087 V 16.696 C 306.087 7.473 298.608 0 289.391 0 z" style="stroke: none; stroke-width: 1; stroke-dasharray: none; stroke-linecap: butt; stroke-linejoin: miter; stroke-miterlimit: 10; fill: #875334; fill-rule: nonzero; opacity: 1;" transform=" matrix(1 0 0 1 0 0) " stroke-linecap="round" />
  <path d="M 439.652 367.304 H 122.435 c -9.217 0 -16.696 -7.473 -16.696 -16.696 V 250.435 c 0 -9.223 7.479 -16.696 16.696 -16.696 h 317.217 c 4.424 0 8.674 1.761 11.804 4.892 l 50.087 50.087 c 6.521 6.516 6.521 17.092 0 23.609 l -50.087 50.087 C 448.326 365.543 444.077 367.304 439.652 367.304 z" style="stroke: none; stroke-width: 1; stroke-dasharray: none; stroke-linecap: butt; stroke-linejoin: miter; stroke-miterlimit: 10; fill: #2500f5; fill-rule: nonzero; opacity: 1;" transform=" matrix(1 0 0 1 0 0) " stroke-linecap="round" />
  <path d="M 451.456 238.631 c -3.13 -3.131 -7.379 -4.892 -11.804 -4.892 H 256 v 133.565 h 183.652 c 4.424 0 8.674 -1.761 11.804 -4.892 l 50.087 -50.087 c 6.521 -6.516 6.521 -17.092 0 -23.609 L 451.456 238.631 z" style="stroke: none; stroke-width: 1; stroke-dasharray: none; stroke-linecap: butt; stroke-linejoin: miter; stroke-miterlimit: 10; fill: #ff9f17; fill-rule: nonzero; opacity: 1;" transform=" matrix(1 0 0 1 0 0) " stroke-linecap="round" />
  <path d="M 389.565 200.348 H 72.348 c -4.424 0 -8.674 -1.761 -11.804 -4.892 l -50.087 -50.087 c -6.521 -6.516 -6.521 -17.092 0 -23.609 l 50.087 -50.087 c 3.13 -3.13 7.379 -4.891 11.804 -4.891 h 317.217 c 9.217 0 16.696 7.473 16.696 16.696 v 100.174 C 406.261 192.875 398.782 200.348 389.565 200.348 z" style="stroke: none; stroke-width: 1; stroke-dasharray: none; stroke-linecap: butt; stroke-linejoin: miter; stroke-miterlimit: 10; fill: #2500f5; fill-rule: nonzero; opacity: 1;" transform=" matrix(1 0 0 1 0 0) " stroke-linecap="round" />
  <path d="M 389.565 66.783 H 256 v 133.565 h 133.565 c 9.217 0 16.696 -7.473 16.696 -16.696 V 83.478 C 406.261 74.256 398.782 66.783 389.565 66.783 z" style="stroke: none; stroke-width: 1; stroke-dasharray: none; stroke-linecap: butt; stroke-linejoin: miter; stroke-miterlimit: 10; fill: #ff9f17; fill-rule: nonzero; opacity: 1;" transform=" matrix(1 0 0 1 0 0) " stroke-linecap="round" />
  <path d="M 356.174 512 H 155.826 c -9.217 0 -16.696 -7.473 -16.696 -16.696 s 7.479 -16.696 16.696 -16.696 h 200.348 c 9.217 0 16.696 7.473 16.696 16.696 S 365.391 512 356.174 512 z" style="stroke: none; stroke-width: 1; stroke-dasharray: none; stroke-linecap: butt; stroke-linejoin: miter; stroke-miterlimit: 10; fill: #00ff26; fill-rule: nonzero; opacity: 1;" transform=" matrix(1 0 0 1 0 0) " stroke-linecap="round" />
  <path d="M 356.174 478.609 H 256 V 512 h 100.174 c 9.217 0 16.696 -7.473 16.696 -16.696 S 365.391 478.609 356.174 478.609 z" style="stroke: none; stroke-width: 1; stroke-dasharray: none; stroke-linecap: butt; stroke-linejoin: miter; stroke-miterlimit: 10; fill: #00ff44; fill-rule: nonzero; opacity: 1;" transform=" matrix(1 0 0 1 0 0) " stroke-linecap="round" />
</g>
</svg>