<svg version="1.1" id="Layer_1" xmlns="http://www.w3.org/2000/svg" xmlns:xlink="http://www.w3.org/1999/xlink" x="0px" y="0px"
	 width="100%" viewBox="0 0 128 128" enable-background="new 0 0 128 128" xml:space="preserve">
<path fill="#FFFFFF" opacity="1.000000" stroke="none" 
	d="
M92.000000,0.999999 
	C104.303635,1.000000 116.607269,1.000000 128.949249,1.000000 
	C128.949249,43.666676 128.949249,86.333344 128.949249,129.000000 
	C123.245483,129.000000 117.592445,129.000000 111.567558,128.647308 
	C115.822403,125.603355 117.354149,121.523399 115.891426,114.664421 
	C115.637466,113.473549 114.059494,112.565033 113.093056,111.526093 
	C112.000023,113.370132 112.041290,114.347595 111.993340,115.320656 
	C111.679047,121.698639 109.332367,125.282753 102.326202,125.166000 
	C77.009689,124.744118 51.681465,124.926544 26.358734,125.070107 
	C21.982189,125.094917 19.547947,123.472000 18.757864,119.255417 
	C18.492983,117.841774 18.033743,116.423920 18.031988,115.007545 
	C17.990725,81.687141 17.986712,48.366669 18.009367,15.046228 
	C18.015013,6.743683 19.798103,5.000143 27.968225,5.000057 
	C45.461464,4.999872 62.954700,5.000000 80.447937,5.000000 
	C82.884171,5.000000 85.320396,5.000000 88.000000,5.000000 
	C88.000000,10.674909 87.981041,15.813272 88.004944,20.951439 
	C88.032852,26.950815 89.977585,28.946125 95.839638,28.994387 
	C99.504639,29.024561 103.199196,29.289957 106.827881,28.925690 
	C111.239159,28.482861 112.122482,30.380335 112.078758,34.384487 
	C111.893211,51.375893 112.000000,68.370491 112.000000,85.363922 
	C112.000000,92.821373 112.000000,100.278824 112.000000,108.074005 
	C113.659126,107.878502 114.829536,107.740585 116.000000,107.602661 
	C116.000000,81.685844 115.931519,56.195812 116.074265,30.706961 
	C116.095528,26.909401 114.804230,24.216658 112.192833,21.629004 
	C105.358597,14.856914 98.717873,7.889530 92.000000,0.999999 
M61.099365,22.587631 
	C60.876053,18.585245 58.709045,16.918715 54.765507,16.971773 
	C47.434761,17.070408 40.079323,16.680351 32.783089,17.191732 
	C30.544189,17.348650 27.987068,19.406639 26.491688,21.312727 
	C25.595856,22.454597 26.260029,25.039515 26.695017,26.863255 
	C26.814510,27.364248 29.484745,27.822268 29.542704,27.686136 
	C30.213387,26.110882 30.590347,24.412600 31.091209,22.760906 
	C31.169619,22.502335 31.476835,22.313148 31.761747,22.000153 
	C38.874718,22.000153 46.039169,21.838783 53.183445,22.146250 
	C54.497181,22.202791 56.756924,24.098234 56.826775,25.251106 
	C57.194195,31.315199 56.998787,37.413391 56.998787,43.932926 
	C55.109459,42.703667 53.688412,41.779087 52.408398,40.946266 
	C53.505020,36.064240 53.414665,31.916834 49.241322,28.597069 
	C45.696381,25.777182 41.968098,26.379206 38.712975,28.221804 
	C33.642792,31.091837 34.866650,36.188084 35.404305,40.812889 
	C34.071671,41.572350 32.754185,42.323177 30.999113,43.323387 
	C30.999113,40.218033 31.233597,37.696724 30.896511,35.254295 
	C30.736872,34.097595 29.484386,33.091724 28.727024,32.017517 
	C27.818270,33.104832 26.187035,34.152443 26.124727,35.286274 
	C25.841705,40.436501 25.748297,45.627590 26.085798,50.771221 
	C26.327665,54.457367 27.986998,57.186142 32.552200,57.054680 
	C39.711700,56.848515 46.881500,57.002640 54.046936,56.999165 
	C59.862751,56.996346 61.826839,55.447674 61.933323,49.661968 
	C62.095562,40.846924 61.819832,32.023823 61.099365,22.587631 
M26.104795,70.410439 
	C26.628983,73.969490 29.215219,74.023445 31.995966,74.019096 
	C53.985493,73.984749 75.975128,74.013359 97.964615,73.969116 
	C99.389503,73.966248 100.871521,73.685081 102.214470,73.213226 
	C102.930229,72.961723 104.006310,71.794930 103.871330,71.440453 
	C103.519058,70.515289 102.712646,69.602081 101.847427,69.087532 
	C101.229622,68.720116 100.223427,69.000771 99.390541,69.000740 
	C76.401436,68.999832 53.412300,68.987221 30.423294,69.035469 
	C29.194181,69.038048 27.966148,69.554749 26.104795,70.410439 
M42.505501,82.000000 
	C37.017284,82.585205 31.244276,80.756294 25.411406,83.299126 
	C28.404320,86.243652 94.408463,87.437172 104.199051,84.608368 
	C102.741119,83.332039 101.042000,82.099716 99.333778,82.086967 
	C80.724403,81.948021 62.113605,82.000000 42.505501,82.000000 
M28.118292,95.015930 
	C27.431856,95.798973 26.745419,96.582016 26.058979,97.365051 
	C27.490343,97.910019 28.919697,98.923782 30.353371,98.929932 
	C53.461849,99.029037 76.570877,99.000069 99.679779,98.999344 
	C100.344742,98.999329 101.155876,99.230042 101.642578,98.933098 
	C102.510849,98.403374 103.183167,97.552460 103.937424,96.835854 
	C103.239975,96.229767 102.628639,95.320656 101.823944,95.092003 
	C100.745644,94.785591 99.517685,95.000786 98.353981,95.000755 
	C75.245079,95.000069 52.136177,95.000641 28.118292,95.015930 
M49.498707,108.000000 
	C42.867867,108.000130 36.234604,107.908745 29.608423,108.084496 
	C28.411552,108.116241 27.243786,109.245277 26.062578,109.867714 
	C27.155590,110.578255 28.241465,111.893723 29.342709,111.906715 
	C41.746162,112.053047 54.151974,111.999329 66.967117,111.999329 
	C66.885262,110.495918 66.821808,109.330521 66.749367,108.000000 
	C61.078712,108.000000 55.788376,108.000000 49.498707,108.000000 
M100.024261,51.998852 
	C101.336876,50.947876 102.649490,49.896900 103.962112,48.845928 
	C102.423981,48.230625 100.897736,47.120979 99.345695,47.083641 
	C91.699165,46.899685 84.044830,46.936813 76.395645,47.053341 
	C74.864914,47.076664 73.344620,47.785034 71.819511,48.177528 
	C71.859489,48.855854 71.899460,49.534176 71.939438,50.212498 
	C80.638359,54.099819 90.092453,51.010498 100.024261,51.998852 
M100.131134,37.000092 
	C91.847794,37.000309 83.562729,36.920433 75.283180,37.097706 
	C74.195213,37.121002 73.135422,38.460239 72.062584,39.189995 
	C73.096420,39.793041 74.123085,40.905094 75.165199,40.919765 
	C84.737030,41.054554 94.311539,40.999138 103.885262,40.999138 
	C104.114182,40.545166 104.343102,40.091194 104.572021,39.637226 
	C103.400223,38.758636 102.228416,37.880047 100.131134,37.000092 
z"/>
<path fill="#000000" opacity="1.000000" stroke="none" 
	d="
M91.531342,0.999999 
	C98.717873,7.889530 105.358597,14.856914 112.192833,21.629004 
	C114.804230,24.216658 116.095528,26.909401 116.074265,30.706961 
	C115.931519,56.195812 116.000000,81.685844 116.000000,107.602661 
	C114.829536,107.740585 113.659126,107.878502 112.000000,108.074005 
	C112.000000,100.278824 112.000000,92.821373 112.000000,85.363922 
	C112.000000,68.370491 111.893211,51.375893 112.078758,34.384487 
	C112.122482,30.380335 111.239159,28.482861 106.827881,28.925690 
	C103.199196,29.289957 99.504639,29.024561 95.839638,28.994387 
	C89.977585,28.946125 88.032852,26.950815 88.004944,20.951439 
	C87.981041,15.813272 88.000000,10.674909 88.000000,5.000000 
	C85.320396,5.000000 82.884171,5.000000 80.447937,5.000000 
	C62.954700,5.000000 45.461464,4.999872 27.968225,5.000057 
	C19.798103,5.000143 18.015013,6.743683 18.009367,15.046228 
	C17.986712,48.366669 17.990725,81.687141 18.031988,115.007545 
	C18.033743,116.423920 18.492983,117.841774 18.757864,119.255417 
	C19.547947,123.472000 21.982189,125.094917 26.358734,125.070107 
	C51.681465,124.926544 77.009689,124.744118 102.326202,125.166000 
	C109.332367,125.282753 111.679047,121.698639 111.993340,115.320656 
	C112.041290,114.347595 112.000023,113.370132 113.093056,111.526093 
	C114.059494,112.565033 115.637466,113.473549 115.891426,114.664421 
	C117.354149,121.523399 115.822403,125.603355 111.097855,128.647308 
	C80.645775,129.000000 50.291542,129.000000 19.370735,128.647232 
	C14.749452,126.790070 13.963890,123.572639 13.969449,119.677750 
	C14.021108,83.480026 14.080190,47.281799 13.899361,11.084904 
	C13.876541,6.517115 15.383722,3.394820 19.000000,1.000000 
	C43.020893,1.000000 67.041786,1.000000 91.531342,0.999999 
M103.011719,24.000000 
	C104.221756,24.000000 105.431793,24.000000 106.593697,24.000000 
	C101.927872,19.365042 97.556358,15.022456 93.346878,10.840826 
	C93.346878,14.966822 93.346878,19.443474 93.346878,24.000000 
	C96.505310,24.000000 99.317116,24.000000 103.011719,24.000000 
z"/>
<path fill="#FFFFFF" opacity="1.000000" stroke="none" 
	d="
M18.530293,1.000000 
	C15.383722,3.394820 13.876541,6.517115 13.899361,11.084904 
	C14.080190,47.281799 14.021108,83.480026 13.969449,119.677750 
	C13.963890,123.572639 14.749452,126.790070 18.902079,128.647232 
	C13.016127,129.000000 7.032252,129.000000 1.000000,129.000000 
	C1.000000,86.630363 0.999801,44.260712 1.003996,1.891060 
	C1.004026,1.593693 1.064486,1.296331 1.101491,0.999484 
	C6.757696,1.000000 12.409140,1.000000 18.530293,1.000000 
z"/>
<path fill="#000000" opacity="1.000000" stroke="none" 
	d="
M61.414722,22.895889 
	C61.819832,32.023823 62.095562,40.846924 61.933323,49.661968 
	C61.826839,55.447674 59.862751,56.996346 54.046936,56.999165 
	C46.881500,57.002640 39.711700,56.848515 32.552200,57.054680 
	C27.986998,57.186142 26.327665,54.457367 26.085798,50.771221 
	C25.748297,45.627590 25.841705,40.436501 26.124727,35.286274 
	C26.187035,34.152443 27.818270,33.104832 28.727024,32.017517 
	C29.484386,33.091724 30.736872,34.097595 30.896511,35.254295 
	C31.233597,37.696724 30.999113,40.218033 30.999113,43.323387 
	C32.754185,42.323177 34.071671,41.572350 35.404305,40.812889 
	C34.866650,36.188084 33.642792,31.091837 38.712975,28.221804 
	C41.968098,26.379206 45.696381,25.777182 49.241322,28.597069 
	C53.414665,31.916834 53.505020,36.064240 52.408398,40.946266 
	C53.688412,41.779087 55.109459,42.703667 56.998787,43.932926 
	C56.998787,37.413391 57.194195,31.315199 56.826775,25.251106 
	C56.756924,24.098234 54.497181,22.202791 53.183445,22.146250 
	C46.039169,21.838783 38.874718,22.000153 31.761747,22.000153 
	C31.476835,22.313148 31.169619,22.502335 31.091209,22.760906 
	C30.590347,24.412600 30.213387,26.110882 29.542704,27.686136 
	C29.484745,27.822268 26.814510,27.364248 26.695017,26.863255 
	C26.260029,25.039515 25.595856,22.454597 26.491688,21.312727 
	C27.987068,19.406639 30.544189,17.348650 32.783089,17.191732 
	C40.079323,16.680351 47.434761,17.070408 54.765507,16.971773 
	C58.709045,16.918715 60.876053,18.585245 61.414722,22.895889 
M47.070530,45.000038 
	C44.592281,45.000095 42.110962,44.921837 39.636509,45.018768 
	C36.026249,45.160198 32.426167,49.177635 32.523762,52.862400 
	C40.263935,52.862400 48.004456,52.862400 56.286091,52.862400 
	C55.052223,48.223736 52.126274,45.978554 47.070530,45.000038 
M47.965565,34.738235 
	C46.046562,31.820395 43.466835,30.733805 40.661011,33.113869 
	C39.784760,33.857162 39.591679,36.314590 40.114910,37.552345 
	C40.677593,38.883419 42.449493,39.703323 43.693775,40.746262 
	C45.128292,39.008358 46.562809,37.270454 47.965565,34.738235 
z"/>
<path fill="#000000" opacity="1.000000" stroke="none" 
	d="
M26.421204,70.121277 
	C27.966148,69.554749 29.194181,69.038048 30.423294,69.035469 
	C53.412300,68.987221 76.401436,68.999832 99.390541,69.000740 
	C100.223427,69.000771 101.229622,68.720116 101.847427,69.087532 
	C102.712646,69.602081 103.519058,70.515289 103.871330,71.440453 
	C104.006310,71.794930 102.930229,72.961723 102.214470,73.213226 
	C100.871521,73.685081 99.389503,73.966248 97.964615,73.969116 
	C75.975128,74.013359 53.985493,73.984749 31.995966,74.019096 
	C29.215219,74.023445 26.628983,73.969490 26.421204,70.121277 
z"/>
<path fill="#000000" opacity="1.000000" stroke="none" 
	d="
M43.004349,82.000000 
	C62.113605,82.000000 80.724403,81.948021 99.333778,82.086967 
	C101.042000,82.099716 102.741119,83.332039 104.199051,84.608368 
	C94.408463,87.437172 28.404320,86.243652 25.411406,83.299126 
	C31.244276,80.756294 37.017284,82.585205 43.004349,82.000000 
z"/>
<path fill="#000000" opacity="1.000000" stroke="none" 
	d="
M28.572784,95.008453 
	C52.136177,95.000641 75.245079,95.000069 98.353981,95.000755 
	C99.517685,95.000786 100.745644,94.785591 101.823944,95.092003 
	C102.628639,95.320656 103.239975,96.229767 103.937424,96.835854 
	C103.183167,97.552460 102.510849,98.403374 101.642578,98.933098 
	C101.155876,99.230042 100.344742,98.999329 99.679779,98.999344 
	C76.570877,99.000069 53.461849,99.029037 30.353371,98.929932 
	C28.919697,98.923782 27.490343,97.910019 26.058979,97.365051 
	C26.745419,96.582016 27.431856,95.798973 28.572784,95.008453 
z"/>
<path fill="#000000" opacity="1.000000" stroke="none" 
	d="
M49.998375,108.000000 
	C55.788376,108.000000 61.078712,108.000000 66.749367,108.000000 
	C66.821808,109.330521 66.885262,110.495918 66.967117,111.999329 
	C54.151974,111.999329 41.746162,112.053047 29.342709,111.906715 
	C28.241465,111.893723 27.155590,110.578255 26.062580,109.867714 
	C27.243786,109.245277 28.411552,108.116241 29.608423,108.084496 
	C36.234604,107.908745 42.867867,108.000130 49.998375,108.000000 
z"/>
<path fill="#000000" opacity="1.000000" stroke="none" 
	d="
M99.564651,51.999390 
	C90.092453,51.010498 80.638359,54.099819 71.939438,50.212498 
	C71.899460,49.534176 71.859489,48.855854 71.819511,48.177528 
	C73.344620,47.785034 74.864914,47.076664 76.395645,47.053341 
	C84.044830,46.936813 91.699165,46.899685 99.345695,47.083641 
	C100.897736,47.120979 102.423981,48.230625 103.962112,48.845924 
	C102.649490,49.896900 101.336876,50.947876 99.564651,51.999390 
z"/>
<path fill="#000000" opacity="1.000000" stroke="none" 
	d="
M100.593872,37.000778 
	C102.228416,37.880047 103.400223,38.758636 104.572021,39.637226 
	C104.343102,40.091194 104.114182,40.545166 103.885262,40.999138 
	C94.311539,40.999138 84.737030,41.054554 75.165199,40.919765 
	C74.123085,40.905094 73.096420,39.793041 72.062584,39.189995 
	C73.135422,38.460239 74.195213,37.121002 75.283180,37.097706 
	C83.562729,36.920433 91.847794,37.000309 100.593872,37.000778 
z"/>
<path fill="#FFFFFF" opacity="1.000000" stroke="none" 
	d="
M102.570312,24.000000 
	C99.317116,24.000000 96.505310,24.000000 93.346878,24.000000 
	C93.346878,19.443474 93.346878,14.966822 93.346878,10.840826 
	C97.556358,15.022456 101.927872,19.365042 106.593697,24.000000 
	C105.431793,24.000000 104.221756,24.000000 102.570312,24.000000 
z"/>
<path fill="#FFFFFF" opacity="1.000000" stroke="none" 
	d="
M47.507851,45.000336 
	C52.126274,45.978554 55.052223,48.223736 56.286091,52.862400 
	C48.004456,52.862400 40.263935,52.862400 32.523762,52.862400 
	C32.426167,49.177635 36.026249,45.160198 39.636509,45.018768 
	C42.110962,44.921837 44.592281,45.000095 47.507851,45.000336 
z"/>
<path fill="#FFFFFF" opacity="1.000000" stroke="none" 
	d="
M47.981445,35.135391 
	C46.562809,37.270454 45.128292,39.008358 43.693779,40.746262 
	C42.449493,39.703323 40.677593,38.883419 40.114910,37.552345 
	C39.591679,36.314590 39.784760,33.857162 40.661011,33.113869 
	C43.466835,30.733805 46.046562,31.820395 47.981445,35.135391 
z"/>
</svg>